HIERARCHY
ROOT Hips
{
  OFFSET -26.1907 99.0914 18.1371
  CHANNELS 6 Xposition Yposition Zposition Zrotation Xrotation Yrotation
  JOINT RightUpLeg
  {
    OFFSET -8.9458 -8.66707 0.101652
    CHANNELS 6 Xposition Yposition Zposition Zrotation Xrotation Yrotation
    JOINT RightLeg
    {
      OFFSET 0 -44.4227 1.3727
      CHANNELS 6 Xposition Yposition Zposition Zrotation Xrotation Yrotation
      JOINT RightFoot
      {
        OFFSET 0.253549 -42.0924 -1.46059
        CHANNELS 6 Xposition Yposition Zposition Zrotation Xrotation Yrotation
        JOINT RightToes
        {
          OFFSET 0.04 -4.41509 8.4991
          CHANNELS 6 Xposition Yposition Zposition Zrotation Xrotation Yrotation
          End Site
          {
            OFFSET -0.08 -0.137448 9.77979
          }
        }
      }
    }
  }
  JOINT Spine
  {
    OFFSET 0 11.8905 0
    CHANNELS 6 Xposition Yposition Zposition Zrotation Xrotation Yrotation
    JOINT Spine1
    {
      OFFSET 0 25.6574 0.127663
      CHANNELS 6 Xposition Yposition Zposition Zrotation Xrotation Yrotation
      JOINT HEad
      {
        OFFSET 0 8.73416 0.011341
        CHANNELS 6 Xposition Yposition Zposition Zrotation Xrotation Yrotation
        End Site
        {
          OFFSET -0.29 12.7742 2.51395
        }
      }
      JOINT LeftShoulder1
      {
        OFFSET 8.99 -0.362252 -0.22
        CHANNELS 6 Xposition Yposition Zposition Zrotation Xrotation Yrotation
        JOINT LeftArm
        {
          OFFSET 10.2827 -0.00337999 0.322123
          CHANNELS 6 Xposition Yposition Zposition Zrotation Xrotation Yrotation
          JOINT LeftForeArm
          {
            OFFSET 26.2597 0.099144 -1.42434
            CHANNELS 6 Xposition Yposition Zposition Zrotation Xrotation Yrotation
            JOINT LeftHand
            {
              OFFSET 22.0902 0.085362 1.02216
              CHANNELS 6 Xposition Yposition Zposition Zrotation Xrotation Yrotation
              End Site
              {
                OFFSET 13.419 -0.6 1.50291
              }
            }
          }
        }
      }
      JOINT RightShoulder
      {
        OFFSET -8.99 -0.362252 -0.22
        CHANNELS 6 Xposition Yposition Zposition Zrotation Xrotation Yrotation
        JOINT RightArm
        {
          OFFSET -10.2827 -0.00338 0.322123
          CHANNELS 6 Xposition Yposition Zposition Zrotation Xrotation Yrotation
          JOINT RightForeArm
          {
            OFFSET -26.364 0.099144 -1.42434
            CHANNELS 6 Xposition Yposition Zposition Zrotation Xrotation Yrotation
            JOINT RightHand
            {
              OFFSET -22.0324 0.085362 1.02216
              CHANNELS 6 Xposition Yposition Zposition Zrotation Xrotation Yrotation
              End Site
              {
                OFFSET -13.3284 -0.6 1.50291
              }
            }
          }
        }
      }
    }
  }
  JOINT LeftUpLeg
  {
    OFFSET 8.9458 -8.66707 0.101652
    CHANNELS 6 Xposition Yposition Zposition Zrotation Xrotation Yrotation
    JOINT LeftLeg
    {
      OFFSET 0 -44.4227 1.3727
      CHANNELS 6 Xposition Yposition Zposition Zrotation Xrotation Yrotation
      JOINT LeftFoot
      {
        OFFSET -0.253549 -42.0924 -1.46059
        CHANNELS 6 Xposition Yposition Zposition Zrotation Xrotation Yrotation
        JOINT LeftToes
        {
          OFFSET -0.04 -4.41509 8.4991
          CHANNELS 6 Xposition Yposition Zposition Zrotation Xrotation Yrotation
          End Site
          {
            OFFSET 0.08 -0.047448 9.77979
          }
        }
      }
    }
  }
}
MOTION
Frames:	5
Frame Time:	0.0333333
-61.6885 100.86 11.8612 5.48892 -2.04309 -64.7255 -8.9458 -8.66707 0.101652 -8.23953 3.2326 19.2509 0 -44.4227 1.3727 -0.121014 27.2705 0.343792 0.253549 -42.0924 -1.46059 -7.4244 -19.7295 -20.7788 0.04 -4.41509 8.4991 6.36111e-015 3.18055e-015 -3.18055e-015 -1.77636e-015 11.8905 0 -2.02818 5.08545 9.74465 0 25.6574 0.127663 -1.67111 -5.59633 2.67537 -7.10543e-015 8.73416 0.011341 7.04979 -28.1927 1.59161 8.99 -0.362252 -0.22 7.20594e-016 -5.46658e-016 9.54166e-015 10.2827 -0.00337999 0.322123 -41.7769 -66.7299 -111.473 26.2597 0.099144 -1.42434 11.0118 -4.77842 -19.7112 22.0902 0.085362 1.02216 1.00018 -27.1844 4.13956 -8.99 -0.362252 -0.22 7.20594e-016 -5.46658e-016 9.54166e-015 -10.2827 -0.00338 0.322123 59.778 -59.2599 119.312 -26.364 0.099144 -1.42434 -7.49286 -2.75047 13.1751 -22.0324 0.085362 1.02216 -0.000332692 -0.949223 -0.133584 8.9458 -8.66707 0.101652 -0.312627 -20.7347 -11.5402 0 -44.4227 1.3727 0.18429 29.7165 -0.392755 -0.253549 -42.0924 -1.46059 0.666832 1.23366 0.252076 -0.04 -4.41509 8.4991 -7.95139e-016 -3.18055e-015 3.18055e-015 
-61.8077 98.1849 13.3441 3.22525 -2.52274 -65.9027 -8.9458 -8.66707 0.101652 -8.77941 6.92116 20.5814 7.10543e-015 -44.4227 1.3727 -0.116736 27.1885 0.343048 0.253549 -42.0924 -1.46059 -9.44588 -24.9683 -21.3937 0.04 -4.41509 8.4991 1.59028e-015 3.18055e-015 -3.18055e-015 1.77636e-015 11.8905 0 -1.88549 7.28366 9.82239 -7.10543e-015 25.6574 0.127663 -1.27429 -5.64405 2.70482 -1.06581e-014 8.73416 0.011341 8.65847 -22.6784 2.84861 8.99 -0.362252 -0.22 1.49089e-016 -6.7711e-016 3.18055e-015 10.2827 -0.00337999 0.322123 -35.4446 -67.8643 -104.565 26.2597 0.099144 -1.42434 11.8015 -5.30931 -21.2238 22.0902 0.085362 1.02216 0.950403 -26.5633 4.02962 -8.99 -0.362252 -0.22 1.49089e-016 -6.7711e-016 3.18055e-015 -10.2827 -0.00338 0.322123 51.141 -58.4166 110.752 -26.364 0.099144 -1.42434 -7.79378 -2.90422 13.7231 -22.0324 0.085362 1.02216 -0.0123198 -3.26868 -0.460081 8.9458 -8.66707 0.101652 -0.383378 -19.02 -8.05343 0 -44.4227 1.3727 0.226497 33.1252 -0.505513 -0.253549 -42.0924 -1.46059 0.467303 -8.14794 -1.44143 -0.04 -4.41509 8.4991 -4.96564e-032 -1.78906e-015 -1.59028e-015 
-61.6131 96.2099 14.3659 4.15707 -5.25956 -64.9465 -8.9458 -8.66707 0.101652 -11.8632 6.92154 20.0415 0 -44.4227 1.3727 -0.149473 29.8577 0.378764 0.253549 -42.0924 -1.46059 -11.876 -29.1405 -23.4388 0.04 -4.41509 8.4991 1.59028e-015 0 6.36111e-015 -3.55271e-015 11.8905 1.42109e-014 -6.08128 7.83193 8.50933 0 25.6574 0.127663 -0.629663 -5.54519 2.26348 3.55271e-015 8.73416 0.011341 8.05339 -20.8845 1.50241 8.99 -0.362252 -0.22 -2.98177e-016 7.95139e-016 -0 10.2827 -0.00337999 0.322123 -25.2865 -67.9399 -93.7136 26.2597 0.099144 -1.42434 13.3931 -6.47395 -24.3381 22.0902 0.085362 1.02216 1.15845 -29.0391 4.47571 -8.99 -0.362252 -0.22 -2.98177e-016 7.95139e-016 -0 -10.2827 -0.00338 0.322123 41.133 -57.7934 100.736 -26.364 0.099144 -1.42434 -8.39973 -3.22413 14.8318 -22.0324 0.085362 1.02216 -0.0272773 -4.78313 -0.674003 8.9458 -8.66707 0.101652 -4.53464 -20.1924 -6.81962 0 -44.4227 1.3727 0.273205 36.3272 -0.590083 -0.253549 -42.0924 -1.46059 0.345706 -12.3103 -1.52916 -0.04 -4.41509 8.4991 1.19271e-015 -2.5842e-015 -6.36111e-015 
-61.1919 95.3878 15.0501 3.73928 -4.29064 -65.1542 -8.9458 -8.66707 0.101652 -10.3518 5.11304 18.773 0 -44.4227 1.3727 -0.192163 33.0045 0.420928 0.253549 -42.0924 -1.46059 -13.1207 -30.0256 -25.2015 0.04 -4.41509 8.4991 8.82781e-032 -1.59028e-015 3.18055e-015 0 11.8905 0 -4.42694 7.90671 8.56211 3.55271e-015 25.6574 0.127663 -1.41312 -4.76413 2.28379 7.10543e-015 8.73416 0.011341 6.10166 -20.6464 0.451467 8.99 -0.362252 -0.22 4.41391e-032 7.95139e-016 -3.18055e-015 10.2827 -0.00337999 0.322123 -15.8071 -65.6843 -82.5439 26.2597 0.099144 -1.42434 15.1672 -7.93489 -27.9306 22.0902 0.085362 1.02216 1.62942 -33.7039 5.37942 -8.99 -0.362252 -0.22 4.41391e-032 7.95139e-016 -3.18055e-015 -10.2827 -0.00338 0.322123 35.442 -56.1619 94.4963 -26.364 0.099144 -1.42434 -9.07119 -3.5961 16.07 -22.0324 0.085362 1.02216 -0.0298795 -5.00809 -0.705879 8.9458 -8.66707 0.101652 -3.83396 -22.0789 -6.00401 -1.77636e-015 -44.4227 1.3727 0.332326 39.7345 -0.671398 -0.253549 -42.0924 -1.46059 0.171425 -14.0219 -2.06813 -0.04 -4.41509 8.4991 -1.19271e-015 -1.59028e-015 -0 
-60.7899 95.6237 15.4387 3.22857 -4.02896 -66.3794 -8.9458 -8.66707 0.101652 -9.22423 3.1175 18.0313 0 -44.4227 1.3727 -0.240306 35.9771 0.466334 0.253549 -42.0924 -1.46059 -13.4222 -28.7308 -26.7374 0.04 -4.41509 8.4991 -3.18055e-015 -7.95139e-016 -0 0 11.8905 0 -3.81439 8.03181 9.77632 -3.55271e-015 25.6574 0.127663 -1.85417 -4.31647 2.62926 0 8.73416 0.011341 4.6671 -19.5349 1.1833 8.99 -0.362252 -0.22 1.98785e-016 1.98785e-016 -3.18055e-015 10.2827 -0.00337999 0.322123 -4.11746 -61.3803 -69.7359 26.2597 0.099144 -1.42434 16.5239 -9.18258 -30.7842 22.0902 0.085362 1.02216 2.14156 -37.7843 6.25526 -8.99 -0.362252 -0.22 1.98785e-016 1.98785e-016 -3.18055e-015 -10.2827 -0.00338 0.322123 32.2314 -53.6023 89.8141 -26.364 0.099144 -1.42434 -9.60992 -3.9085 17.0715 -22.0324 0.085362 1.02216 -0.0422804 -5.9299 -0.836686 8.9458 -8.66707 0.101652 -3.43158 -21.9649 -5.9674 -3.55271e-015 -44.4227 1.3727 0.339907 40.1783 -0.676898 -0.253549 -42.0924 -1.46059 0.249485 -13.4767 -1.83023 -0.04 -4.41509 8.4991 -1.19271e-015 -3.97569e-016 3.18055e-015 
